<?xml version="1.0" encoding="utf-8"?>
<!-- Generator: Adobe Illustrator 19.1.0, SVG Export Plug-In . SVG Version: 6.00 Build 0)  -->
<svg version="1.1" xmlns="http://www.w3.org/2000/svg" xmlns:xlink="http://www.w3.org/1999/xlink" x="0px" y="0px"
	 viewBox="0 0 16 16" style="enable-background:new 0 0 16 16;" xml:space="preserve">
<style type="text/css">
	.st0{display:none;}
	.st1{display:inline;fill:none;stroke:#000000;stroke-miterlimit:10;}
	.st2{fill:none;stroke:#000000;stroke-miterlimit:10;}
</style>
<g id="レイヤー_1" class="st0">
	<path class="st1" d="M14.4,8.1c-1.6,5.9-4.6,5.9-6.2,0C6.7,2.3,3.5,2.4,2,8.1"/>
</g>
<g id="レイヤー_2" class="st0">
	<polyline class="st1" points="1.5,8 1.5,3.5 7.5,3.5 7.5,12.5 13.5,12.5 13.5,8 	"/>
</g>
<g id="レイヤー_3" class="st0">
	<polyline class="st1" points="1.5,8 4.4,3.7 10.3,12.5 13.5,8 	"/>
</g>
<g id="レイヤー_4">
	<polyline class="st2" points="1.5,12.8 13.5,3.7 13.5,13 	"/>
</g>
<g id="レイヤー_5" class="st0">
	<polyline class="st1" points="1.5,13 1.5,8.5 5.5,8.5 5.5,2.5 8.5,2.5 8.5,10.5 11.5,10.5 11.5,13.5 15,13.5 	"/>
</g>
<g id="レイヤー_6" class="st0">
	<path class="st1" d="M1.5,13.5c0,0,0-7.6,1.9-7.6c1.2,0,0.5-3.4,1.9-3.4c2.5,0,1.5,6.9,4.6,7c3.2,0.1,0.7,4,5.1,4"/>
</g>
</svg>
