<?xml version="1.0" encoding="utf-8"?>
<svg version="1.1" xmlns="http://www.w3.org/2000/svg" xmlns:xlink="http://www.w3.org/1999/xlink" x="0px"
	 y="0px" viewBox="0 0 34 52" style="enable-background:new 0 0 33 52;" xml:space="preserve">
<polygon class="sevenseg number-0 number-4 number-5 number-6 number-8 number-9" points="6.3,3.8 3.4,6.4 2,22.2 4.4,24.8 7.2,22.2 8.6,6.4 "/>
<polygon class="sevenseg number-0 number-2 number-6 number-8" points="4.2,27.2 1.4,29.8 0,45.6 2.4,48.2 5.2,45.6 6.6,29.8 "/>
<polygon class="sevenseg number-0 number-2 number-3 number-5 number-6 number-7 number-8 number-9" points="7.5,2.5 9.9,5 25.7,5 28.6,2.5 26.2,0 10.4,0 "/>
<polygon class="sevenseg number-2 number-3 number-4 number-5 number-6 number-8 number-9 number-minus" points="5.5,26 7.9,29 23.7,29 26.5,26 24.1,23 8.3,23 "/>
<polygon class="sevenseg number-0 number-2 number-3 number-5 number-6 number-8 number-9" points="3.4,49.5 5.8,52 21.6,52 24.5,49.5 22.1,47 6.3,47 "/>
<polygon class="sevenseg number-0 number-1 number-2 number-3 number-4 number-7 number-8 number-9" points="29.6,3.8 26.8,6.4 25.4,22.2 27.8,24.8 30.6,22.2 32,6.4 "/>
<polygon class="sevenseg number-0 number-1 number-3 number-4 number-5 number-6 number-7 number-8 number-9" points="27.6,27.2 24.8,29.8 23.4,45.6 25.7,48.2 28.6,45.6 30,29.8 "/>
</svg>
